<svg height="512" viewBox="0 0 34 34" width="512" xmlns="http://www.w3.org/2000/svg"><path d="M8 1c-.5 0-1 .4-1 1v1H4C2.4 3 1 4.3 1 6v24c0 1.7 1.3 3 3 3h26c1.7 0 3-1.3 3-3V6c0-1.7-1.3-3-3-3h-3V2c0-.6-.4-1-1-1s-1 .4-1 1v1H9V2c0-.6-.4-1-1-1zm23 29c0 .6-.4 1-1 1H4c-.6 0-1-.4-1-1V11h28zM25 5v1c0 .6.4 1 1 1s1-.4 1-1V5h3c.6 0 1 .4 1 1v3H3V6c0-.6.4-1 1-1h3v1c0 .6.4 1 1 1s1-.4 1-1V5z"/><path d="M7.1 19.5h4c.6 0 1-.4 1-1v-4c0-.6-.4-1-1-1h-4c-.6 0-1 .4-1 1v4c0 .6.4 1 1 1zm1-4h2v2h-2zm7 4h4c.6 0 1-.4 1-1v-4c0-.6-.4-1-1-1h-4c-.6 0-1 .4-1 1v4c0 .6.4 1 1 1zm1-4h2v2h-2zm7 4h4c.6 0 1-.4 1-1v-4c0-.6-.4-1-1-1h-4c-.6 0-1 .4-1 1v4c0 .6.4 1 1 1zm1-4h2v2h-2zm-17 13h4c.6 0 1-.4 1-1v-4c0-.6-.4-1-1-1h-4c-.6 0-1 .4-1 1v4c0 .6.4 1 1 1zm1-4h2v2h-2zm7 4h4c.6 0 1-.4 1-1v-4c0-.6-.4-1-1-1h-4c-.6 0-1 .4-1 1v4c0 .6.4 1 1 1zm1-4h2v2h-2zm7 4h4c.6 0 1-.4 1-1v-4c0-.6-.4-1-1-1h-4c-.6 0-1 .4-1 1v4c0 .6.4 1 1 1zm1-4h2v2h-2z"/></svg>