<svg height="908" viewBox="-21 -180 681.331 681" width="908" xmlns="http://www.w3.org/2000/svg"><path d="M483.379-1.113c-80.426 0-134.715 54.644-164.035 95.437-5.723-7.949-12.375-16.414-19.973-24.87-41.453-46.17-91.241-70.568-143.996-70.568-80.512 0-146.008 67.62-146.008 150.738 0 83.121 65.496 150.742 146.008 150.742 80.43 0 134.719-54.644 164.035-95.441 5.723 7.945 12.375 16.41 19.973 24.87 41.449 46.165 91.242 70.571 143.996 70.571 80.512 0 146.008-67.625 146.008-150.742S563.89-1.113 483.379-1.113zM155.375 243.219c-48.996 0-88.86-41.989-88.86-93.594s39.864-93.594 88.86-93.594c70.41 0 115.805 66.028 131.688 93.594-15.883 27.57-61.278 93.594-131.688 93.594zm328.004 0c-70.465 0-115.875-66.125-131.723-93.656 15.727-27.551 60.809-93.532 131.723-93.532 48.996 0 88.86 41.989 88.86 93.594s-39.864 93.594-88.86 93.594zm0 0" fill="#ff3d43"/><path d="M293.352 161.422c-1.891-4.207-6.29-11.797-6.29-11.797-5.964 10.36-16.097 26.137-30.152 41.805 1.45 3.164 11.735 24.937 31.13 50.351 12.507-12.328 22.944-25.136 31.335-36.808-16.488-22.938-25.105-41.504-26.023-43.551zm26.023-67.145c16.492 22.938 25.098 41.508 26.023 43.551.192.41 6.258 11.734 6.258 11.734 5.57-9.761 14.832-24.34 27.614-39.105a103.823 103.823 0 01-1.59-3.2c-.98-2.163-10.594-22.89-29.063-47.695-11.582 11.676-21.32 23.7-29.242 34.715zm0 0" fill="#d72e2e"/><path d="M483.379-10.48c-37.774 0-73.602 11.46-106.488 34.07-20.844 14.32-40.16 32.836-57.555 55.12a298.09 298.09 0 00-12.996-15.515C263.066 14.996 210.863-10.48 155.375-10.48 69.703-10.48 0 61.344 0 149.625S69.703 309.73 155.375 309.73c37.777 0 73.602-11.464 106.488-34.07 20.84-14.324 40.16-32.832 57.559-55.12a299.676 299.676 0 0012.992 15.515c43.274 48.203 95.477 73.675 150.965 73.675 32.23 0 63.164-10.117 89.46-29.265 4.184-3.04 5.106-8.899 2.063-13.086a9.367 9.367 0 00-13.086-2.055C538.742 282.121 511.621 291 483.38 291c-50.02 0-97.402-23.328-137.027-67.46-6.704-7.466-13.207-15.571-19.336-24.083a9.645 9.645 0 00-.586-.723c-15.625-21.875-23.672-39.254-24.563-41.21-.02-.051-2.277-4.919-6.687-12.575a.255.255 0 00-.04-.058c-17.05-29.582-64.734-98.227-139.765-98.227-19.738 0-38.781 6.137-55.082 17.742-4.211 3.004-5.195 8.852-2.195 13.067a9.364 9.364 0 0013.062 2.191c13.11-9.332 28.395-14.266 44.215-14.266 21.324 0 75.16 8.329 120.82 84.227-45.66 75.898-99.496 84.227-120.82 84.227-43.832 0-79.492-37.782-79.492-84.227 0-16.152 4.347-31.855 12.574-45.414 2.684-4.418 1.273-10.18-3.148-12.863-4.422-2.68-10.184-1.274-12.868 3.148-10.003 16.484-15.293 35.55-15.293 55.129 0 56.77 44.067 102.96 98.227 102.96 64.691 0 109.055-51.034 130.984-84.058 2.993 6.11 10.137 19.809 21.48 36.32C277.349 245.38 227.09 291 155.376 291c-75.348 0-136.64-63.422-136.64-141.375 0-77.957 61.292-141.371 136.64-141.371 50.02 0 97.402 23.32 137.027 67.453 6.707 7.469 13.211 15.57 19.332 24.09.18.25.38.476.582.707C327.95 122.39 336 139.77 336.895 141.746c.027.05 2.242 4.848 6.636 12.492a.107.107 0 01.035.047c17.047 29.598 64.743 98.3 139.813 98.3 54.16 0 98.223-46.19 98.223-102.96 0-23.742-7.922-46.922-22.309-65.277a9.362 9.362 0 00-13.148-1.594c-4.075 3.195-4.786 9.082-1.594 13.148 11.812 15.075 18.32 34.153 18.32 53.723 0 46.445-35.66 84.227-79.492 84.227-21.344 0-75.211-8.329-120.867-84.309 45.23-75.832 99.383-84.145 120.867-84.145 12.469 0 24.41 2.985 35.496 8.872a9.357 9.357 0 0012.664-3.872c2.422-4.566.691-10.242-3.879-12.668-13.82-7.343-28.719-11.066-44.281-11.066-65.086 0-109.258 50.914-131.05 83.934-3.024-6.172-10.15-19.793-21.419-36.196 30.492-40.53 80.75-86.156 152.469-86.156 75.34 0 136.64 63.422 136.64 141.375 0 33.524-11.593 66.059-32.644 91.598-3.293 3.992-2.723 9.894 1.27 13.187 3.992 3.29 9.894 2.719 13.183-1.27 23.809-28.89 36.918-65.652 36.918-103.515.008-88.277-69.695-160.101-155.367-160.101zm0 0"/></svg>