<svg xmlns="http://www.w3.org/2000/svg" viewBox="0 0 80 80"><path d="M65 80H15C6.8 80 0 73.3 0 65V15C0 6.8 6.8 0 15 0h50c8.3 0 15 6.8 15 15v50c0 8.3-6.7 15-15 15z" fill="#57ac57"/><path d="M18 20c1.6 0 3.1 1.1 3.5 2.7l6.4 23.8L35 22.6c.5-1.6 1.9-2.6 3.5-2.6h4.1c1.6 0 3.1 1.1 3.6 2.6l7.3 23.9L60 22.7c.4-1.6 1.9-2.7 3.5-2.7H66c1.6 0 2.9 1.4 2.9 3 0 .2-.1.5-.1.8l-10 35.5c-.5 1.6-1.9 2.7-3.5 2.7H51c-1.2 0-2.3-.8-2.8-2l-8.1-25-8 25c-.4 1.2-1.6 2-2.8 2H25c-1.6 0-3.1-1.1-3.5-2.6L11 23.8c-.1-.3-.1-.6-.1-.9 0-1.6 1.3-2.9 2.9-2.9H18z" fill="#fff"/></svg>