<?xml version="1.0" encoding="utf-8"?><svg viewBox="0 0 351 98" xmlns="http://www.w3.org/2000/svg" xmlns:xlink="http://www.w3.org/1999/xlink"><style>:root>svg{display:none}:root>svg:target{display:block}</style><svg version="1.0" viewBox="0 0 351 98" id="title-bg" xmlns="http://www.w3.org/2000/svg"><path d="M42.5 95.9c-17.6-2.3-23.1-6-30.1-20.4-7.3-15-12.3-39.6-11-53.7.8-8.7 1.2-9.5 5.5-11.8C17.9 4.4 55 2.2 149 1.3c77-.7 118.7.7 164.5 5.2 22.8 2.3 30.2 5.1 33.2 12.4 1.9 4.3 4.4 41.5 3.3 48.6-1.2 8-2.2 8.5-24.2 11.1C260.1 86.4 185 93 130 96c-22.1 1.2-77.7 1.1-87.5-.1z" fill="currentColor" stroke="currentColor"/></svg></svg>